<?xml version="1.0" encoding="utf-8"?>
<!-- Generator: Adobe Illustrator 19.0.0, SVG Export Plug-In . SVG Version: 6.00 Build 0)  -->
<svg version="1.1" id="Layer_1" xmlns="http://www.w3.org/2000/svg" xmlns:xlink="http://www.w3.org/1999/xlink" x="0px" y="0px"
	 viewBox="0 0 400 400" style="enable-background:new 0 0 400 400;" xml:space="preserve">
<style type="text/css">
	.st0{fill:#D1D3D4;}
</style>
<path id="XMLID_896_" class="st0" d="M281.4,161.6c1.2-0.2,2.1-1.1,2.4-2.3l1.9-10.4c0.3-1.4-0.6-2.8-2-3.2l-10.2-2.8
	c-1.2-0.3-2.4,0.2-3.1,1.2l-9.8,14.9l-5.4,3.4l4.7-7.3c0.5-0.8,0.5-1.9-0.1-2.6l-5.3-6.6c-0.7-0.9-2-1.1-3-0.4l-7,4.7
	c-0.8,0.5-1.2,1.5-0.9,2.5l4.2,14.4l-9.7,6.1l4.7-7.3c0.5-0.8,0.5-1.9-0.1-2.6l-5.3-6.6c-0.7-0.9-2-1.1-3-0.4l-7,4.7
	c-0.8,0.5-1.2,1.5-0.9,2.5l4.2,14.4l-9.7,6.1l4.7-7.3c0.5-0.8,0.5-1.9-0.1-2.6l-5.3-6.6c-0.3-0.3-0.6-0.5-0.9-0.6
	c-0.3-0.3-0.7-0.5-1.2-0.6l-8.4-1c-1-0.1-1.9,0.4-2.3,1.3l-3.6,7.8v-11.5l14.4-4.1c0.9-0.3,1.6-1.1,1.6-2.1l0.3-8.4c0,0,0,0,0,0l0,0
	c0-1.2-0.8-2.1-2-2.3l-8.4-1c-1-0.1-1.9,0.4-2.3,1.3l-3.6,7.8v-11.5l14.4-4.1c0.9-0.3,1.6-1.1,1.6-2.1l0.3-8.4c0-1.2-0.8-2.2-2-2.3
	l-8.4-1c-1-0.1-1.9,0.4-2.3,1.3l-3.6,7.8v-6.4l7.4-16.3c0.5-1.1,0.2-2.4-0.7-3.2l-7.8-7.1c-1.1-1-2.7-1-3.8,0l-7.8,7.1
	c-0.9,0.8-1.2,2.1-0.7,3.2l7.4,16.3v6.4l-3.6-7.8c-0.4-0.9-1.3-1.4-2.3-1.3l-8.4,1c-1.1,0.1-2,1.1-2,2.3l0.3,8.4
	c0,1,0.7,1.8,1.6,2.1l14.4,4.2v11.5l-3.6-7.8c-0.4-0.9-1.3-1.4-2.3-1.3l-8.4,1c-1.1,0.1-2,1.1-2,2.3l0,0c0,0,0,0,0,0l0.3,8.4
	c0,1,0.7,1.8,1.6,2.1l14.4,4.2v11.5l-3.6-7.8c-0.4-0.9-1.3-1.4-2.3-1.3l-8.4,1c-0.5,0.1-0.9,0.3-1.2,0.6c-0.4,0.1-0.7,0.3-0.9,0.6
	l-5.3,6.6c-0.6,0.7-0.7,1.8-0.1,2.6l4.7,7.3l-9.7-6.1l4.2-14.4c0.3-0.9-0.1-1.9-0.9-2.5l-7-4.7c-1-0.7-2.3-0.5-3,0.4l-5.3,6.6
	c-0.6,0.7-0.7,1.8-0.1,2.6l4.7,7.3l-9.7-6.1l4.2-14.4c0.3-0.9-0.1-1.9-0.9-2.5l-7-4.7c-1-0.7-2.3-0.5-3,0.4l-5.3,6.6
	c-0.6,0.7-0.7,1.8-0.1,2.6l4.7,7.2l-5.4-3.4l-9.8-14.9c-0.7-1-1.9-1.5-3.1-1.2l-10.2,2.8c-1.4,0.4-2.3,1.8-2,3.2l1.9,10.4
	c0.2,1.2,1.2,2.1,2.4,2.3l17.7,2.4l5.4,3.4l-8.6-1.1c-1-0.1-1.9,0.4-2.3,1.3l-3.6,7.6c-0.5,1-0.1,2.3,0.9,2.9l7.3,4.3
	c0.8,0.5,1.9,0.4,2.6-0.3l11.2-9.9l9.7,6.1l-8.6-1.1c-1-0.1-1.9,0.4-2.3,1.3l-3.6,7.6c-0.5,1-0.1,2.3,0.9,2.9l7.3,4.3
	c0.8,0.5,1.9,0.4,2.6-0.3l11.2-9.9l9.7,6.1l-8.6-1.1c-1-0.1-1.9,0.4-2.3,1.3l-3.6,7.6c-0.5,1-0.1,2.3,0.9,2.9l1,0.6l-1,0.6
	c-1,0.6-1.4,1.8-0.9,2.9l3.6,7.6c0.4,0.9,1.3,1.4,2.3,1.3l8.6-1.1l-9.7,6.1l-11.2-9.9c-0.7-0.6-1.8-0.7-2.6-0.3l-7.3,4.3
	c-1,0.6-1.4,1.8-0.9,2.9l3.6,7.6c0.4,0.9,1.3,1.4,2.3,1.3l8.6-1.1l-9.7,6.1l-11.2-9.9c-0.7-0.6-1.8-0.7-2.6-0.3l-7.3,4.3
	c-1,0.6-1.4,1.8-0.9,2.9l3.6,7.6c0.4,0.9,1.3,1.4,2.3,1.3l8.6-1.1l-5.4,3.4l-17.7,2.4c-1.2,0.2-2.1,1.1-2.4,2.3l-1.9,10.4
	c-0.3,1.4,0.6,2.8,2,3.2l10.2,2.8c1.2,0.3,2.4-0.2,3.1-1.2l9.8-14.9l5.4-3.4l-4.7,7.2c-0.5,0.8-0.5,1.9,0.1,2.6l5.3,6.6
	c0.7,0.9,2,1.1,3,0.4l7-4.7c0.8-0.5,1.2-1.5,0.9-2.5l-4.2-14.4l9.7-6.1l-4.7,7.2c-0.5,0.8-0.5,1.9,0.1,2.6l5.3,6.6
	c0.7,0.9,2,1.1,3,0.4l7-4.7c0.8-0.5,1.2-1.5,0.9-2.5l-4.2-14.4l9.7-6.1l-4.7,7.2c-0.5,0.8-0.5,1.9,0.1,2.6l5.3,6.6
	c0.3,0.3,0.6,0.5,1,0.7c0.3,0.3,0.7,0.5,1.1,0.5l8.4,1c1,0.1,1.9-0.4,2.3-1.3l3.6-7.8v11.5l-14.4,4.2c-0.9,0.3-1.6,1.1-1.6,2.1
	l-0.3,8.4c0,1.2,0.8,2.1,2,2.3l8.4,1c1,0.1,1.9-0.4,2.3-1.3l3.6-7.8v11.5l-14.4,4.2c-0.9,0.3-1.6,1.1-1.6,2.1l-0.3,8.4
	c0,1.2,0.8,2.1,2,2.3l8.4,1c1,0.1,1.9-0.4,2.3-1.3l3.6-7.8v6.4l-7.4,16.3c-0.5,1.1-0.2,2.4,0.7,3.2l7.8,7.1c1.1,1,2.7,1,3.8,0
	l7.8-7.1c0.9-0.8,1.2-2.1,0.7-3.2l-7.4-16.3v-6.4l3.6,7.8c0.4,0.9,1.3,1.4,2.3,1.3l8.4-1c1.1-0.1,2-1.1,2-2.3l-0.3-8.4
	c0-1-0.7-1.8-1.6-2.1l-14.4-4.2v-11.5l3.6,7.8c0.4,0.9,1.3,1.4,2.3,1.3l8.4-1c1.1-0.1,2-1.1,2-2.3l-0.3-8.4c0-1-0.7-1.8-1.6-2.1
	l-14.4-4.1V226l3.6,7.8c0.4,0.9,1.3,1.4,2.3,1.3l8.4-1c0.4-0.1,0.8-0.2,1.1-0.5c0.4-0.1,0.7-0.3,1-0.7l5.3-6.6
	c0.6-0.7,0.7-1.8,0.1-2.6l-4.7-7.2l9.7,6.1l-4.2,14.4c-0.3,0.9,0.1,1.9,0.9,2.5l7,4.7c1,0.7,2.3,0.5,3-0.4l5.3-6.6
	c0.6-0.7,0.7-1.8,0.1-2.6l-4.7-7.2l9.7,6.1l-4.2,14.4c-0.3,0.9,0.1,1.9,0.9,2.5l7,4.7c1,0.7,2.3,0.5,3-0.4l5.3-6.6
	c0.6-0.7,0.7-1.8,0.1-2.6l-4.7-7.2l5.4,3.4l9.8,14.9c0.7,1,1.9,1.5,3.1,1.2l10.2-2.8c1.4-0.4,2.3-1.8,2-3.2l-1.9-10.4
	c-0.2-1.2-1.2-2.1-2.4-2.3l-17.7-2.4l-5.4-3.4l8.6,1.1c1,0.1,1.9-0.4,2.3-1.3l3.6-7.6c0.5-1,0.1-2.3-0.9-2.9l-7.3-4.3
	c-0.8-0.5-1.9-0.4-2.6,0.3l-11.2,9.9l-9.7-6.1l8.6,1.1c1,0.1,1.9-0.4,2.3-1.3l3.6-7.6c0.5-1,0.1-2.3-0.9-2.9l-7.3-4.3
	c-0.8-0.5-1.9-0.4-2.6,0.3l-11.2,9.9l-9.7-6.1l8.6,1.1c1,0.1,1.9-0.4,2.3-1.3l3.6-7.6c0.5-1,0.1-2.3-0.9-2.9l-1-0.6l1-0.6
	c1-0.6,1.4-1.8,0.9-2.9l-3.6-7.6c-0.4-0.9-1.3-1.4-2.3-1.3l-8.6,1.1l9.7-6.1l11.2,9.9c0.7,0.6,1.8,0.7,2.6,0.3l7.3-4.3
	c1-0.6,1.4-1.8,0.9-2.9l-3.6-7.6c-0.4-0.9-1.3-1.4-2.3-1.3l-8.6,1.1l9.7-6.1l11.2,9.9c0.7,0.6,1.8,0.7,2.6,0.3l7.3-4.3
	c1-0.6,1.4-1.8,0.9-2.9l-3.6-7.6c-0.4-0.9-1.3-1.4-2.3-1.3l-8.6,1.1l5.4-3.4L281.4,161.6z M177.7,200.4l7.3-6.5l10.3,6.5l-10.3,6.5
	L177.7,200.4z M197.8,217.1l-7.5,2.2l-2.2-7.5l9.7-6.1V217.1z M197.8,195.1l-9.7-6.1l2.2-7.5l7.5,2.2V195.1z M203.6,183.6l7.5-2.2
	l2.2,7.5l-9.7,6.1V183.6z M211.1,219.3l-7.5-2.2v-11.5l9.7,6.1L211.1,219.3z M216.4,206.9l-10.3-6.5l10.3-6.5l7.3,6.5L216.4,206.9z"
	/>
</svg>
