<?xml version="1.0" encoding="utf-8"?>
<!-- Generator: Adobe Illustrator 19.0.0, SVG Export Plug-In . SVG Version: 6.00 Build 0)  -->
<svg version="1.1" id="Layer_1" xmlns="http://www.w3.org/2000/svg" xmlns:xlink="http://www.w3.org/1999/xlink" x="0px" y="0px"
	 viewBox="0 0 400 400" style="enable-background:new 0 0 400 400;" xml:space="preserve">
<style type="text/css">
	.st0{fill:#D1D3D4;}
</style>
<g id="XMLID_9_">
	<path id="XMLID_75_" class="st0" d="M284.5,247.2l-13.6-8.2l11.5-3.7c1.8-0.6,2.8-2.5,2.2-4.3c-0.6-1.8-2.5-2.8-4.3-2.2l-17.1,5.6
		l-9-5.4l19.1-6.2c1.8-0.6,2.8-2.5,2.2-4.3c-0.6-1.8-2.5-2.8-4.3-2.2l-24.8,8.1l-4.1-2.5l9.9-17.2c1.5-2.6,1.5-5.7,0-8.3l-9.9-17.2
		l4.1-2.5l24.8,8.1c0.4,0.1,0.7,0.2,1.1,0.2c1.4,0,2.8-0.9,3.3-2.4c0.6-1.8-0.4-3.7-2.2-4.3L254,172l9-5.4l17.1,5.6
		c0.4,0.1,0.7,0.2,1.1,0.2c1.4,0,2.8-0.9,3.3-2.4c0.6-1.8-0.4-3.7-2.2-4.3l-11.5-3.7l13.6-8.2c1.6-1,2.2-3.1,1.2-4.7
		c-1-1.6-3.1-2.2-4.7-1.2l-13.6,8.2l2.1-11.9c0.3-1.9-0.9-3.6-2.8-4c-1.9-0.3-3.6,0.9-4,2.8l-3.1,17.8l-9,5.4l3.5-19.8
		c0.3-1.9-0.9-3.6-2.8-4c-1.9-0.3-3.7,0.9-4,2.8l-4.6,25.7l-4,2.4l-9.1-15.8c-1.5-2.6-4.2-4.2-7.2-4.2h-19v-4.7l19.7-17.1
		c1.4-1.2,1.6-3.4,0.3-4.8c-1.2-1.4-3.4-1.6-4.8-0.3l-15.2,13.2v-10.5l13.6-11.8c1.4-1.2,1.6-3.4,0.3-4.8c-1.3-1.4-3.4-1.6-4.8-0.3
		l-9.1,7.9v-15.9c0-1.9-1.5-3.4-3.4-3.4c-1.9,0-3.4,1.5-3.4,3.4v15.9l-9.1-7.9c-1.4-1.2-3.6-1.1-4.8,0.3c-1.2,1.4-1.1,3.6,0.3,4.8
		l13.6,11.8v10.5l-15.2-13.2c-1.4-1.2-3.6-1.1-4.8,0.3c-1.2,1.4-1.1,3.6,0.3,4.8l19.7,17.1v4.7h-19c-3,0-5.7,1.6-7.2,4.1l-9.1,15.8
		l-4-2.4l-4.6-25.7c-0.3-1.9-2.1-3.1-4-2.8c-1.9,0.3-3.1,2.1-2.8,4l3.5,19.8l-9-5.4l-3.2-17.8c-0.3-1.9-2.1-3.1-4-2.8
		c-1.9,0.3-3.1,2.1-2.8,4l2.1,11.9l-13.6-8.2c-1.6-1-3.7-0.4-4.7,1.2c-1,1.6-0.4,3.7,1.2,4.7l13.6,8.2l-11.5,3.7
		c-1.8,0.6-2.8,2.5-2.2,4.3c0.5,1.5,1.8,2.4,3.3,2.4c0.4,0,0.7-0.1,1.1-0.2l17.1-5.6l9,5.4l-19.1,6.2c-1.8,0.6-2.8,2.5-2.2,4.3
		c0.5,1.5,1.8,2.4,3.3,2.4c0.4,0,0.7-0.1,1.1-0.2l24.8-8.1l4.1,2.5l-9.9,17.2c-1.5,2.6-1.5,5.7,0,8.3l9.9,17.2l-4.1,2.5l-24.8-8.1
		c-1.8-0.6-3.7,0.4-4.3,2.2c-0.6,1.8,0.4,3.7,2.2,4.3l19.1,6.2l-9,5.4l-17.1-5.6c-1.8-0.6-3.7,0.4-4.3,2.2c-0.6,1.8,0.4,3.7,2.2,4.3
		l11.5,3.7l-13.6,8.2c-1.6,1-2.2,3.1-1.2,4.7c0.6,1.1,1.8,1.7,2.9,1.7c0.6,0,1.2-0.2,1.8-0.5l13.6-8.2l-2.1,11.9
		c-0.3,1.9,0.9,3.6,2.8,4c0.2,0,0.4,0.1,0.6,0.1c1.6,0,3.1-1.2,3.4-2.8l3.2-17.8l9-5.4l-3.5,19.8c-0.3,1.9,0.9,3.6,2.8,4
		c0.2,0,0.4,0.1,0.6,0.1c1.6,0,3.1-1.2,3.4-2.8l4.6-25.7l4-2.4l9.1,15.8c1.5,2.6,4.2,4.1,7.2,4.1h19v4.7l-19.7,17.1
		c-1.4,1.2-1.6,3.4-0.3,4.8c0.7,0.8,1.6,1.2,2.6,1.2c0.8,0,1.6-0.3,2.3-0.8l15.2-13.2V272l-13.6,11.8c-1.4,1.2-1.6,3.4-0.3,4.8
		c0.7,0.8,1.6,1.2,2.6,1.2c0.8,0,1.6-0.3,2.3-0.8l9.1-7.9V297c0,1.9,1.5,3.4,3.4,3.4c1.9,0,3.4-1.5,3.4-3.4v-15.9l9.1,7.9
		c0.7,0.6,1.5,0.8,2.3,0.8c1,0,1.9-0.4,2.6-1.2c1.2-1.4,1.1-3.6-0.3-4.8L203.3,272v-10.5l15.2,13.2c0.7,0.6,1.5,0.8,2.3,0.8
		c1,0,1.9-0.4,2.6-1.2c1.2-1.4,1.1-3.6-0.3-4.8l-19.7-17.1v-4.7h19c3,0,5.7-1.6,7.2-4.1l9.1-15.8l4,2.4l4.6,25.7
		c0.3,1.7,1.7,2.8,3.4,2.8c0.2,0,0.4,0,0.6-0.1c1.9-0.3,3.1-2.1,2.8-4l-3.5-19.8l9,5.4l3.1,17.8c0.3,1.7,1.7,2.8,3.4,2.8
		c0.2,0,0.4,0,0.6-0.1c1.9-0.3,3.1-2.1,2.8-4l-2.1-11.9l13.6,8.2c0.6,0.3,1.2,0.5,1.8,0.5c1.2,0,2.3-0.6,2.9-1.7
		C286.6,250.2,286.1,248.1,284.5,247.2z M246.1,199.7c0.3,0.4,0.3,1,0,1.4l-9.9,17.1l-5.1-3.1l0.1-29.5l5.1-3L246.1,199.7z
		 M203.3,174.2l17,9.9l-17,10.2V174.2z M196.5,194.4l-17.1-10.3l17.1-9.8V194.4z M193.2,200.4l-17.7,10.6l0.1-21.2L193.2,200.4z
		 M196.5,206.5v20.1l-17-9.9L196.5,206.5z M203.3,206.5l17.1,10.3l-17.1,9.8V206.5z M206.6,200.4l17.7-10.6l-0.1,21.2L206.6,200.4z
		 M222.4,160.1c0.5,0,1,0.3,1.2,0.7l9.2,15.9l-5.7,3.4l-23.8-13.8v-6.2H222.4z M176.2,160.8c0.3-0.4,0.7-0.7,1.2-0.7h19v6.3
		l-23.8,13.7l-5.6-3.4L176.2,160.8z M153.7,201.1c-0.3-0.4-0.3-1,0-1.4l9.9-17.1l5.1,3.1l-0.1,29.5l-5.1,3L153.7,201.1z
		 M177.4,240.8c-0.5,0-1-0.3-1.2-0.7c0,0,0,0,0,0l-9.2-15.9l5.7-3.4l23.8,13.8v6.2H177.4z M223.6,240.1c-0.3,0.4-0.7,0.7-1.2,0.7
		h-19v-6.3l23.8-13.7l5.6,3.4L223.6,240.1z"/>
	<circle id="XMLID_129_" class="st0" cx="277.4" cy="200.4" r="8.1"/>
	<circle id="XMLID_130_" class="st0" cx="122.4" cy="200.4" r="8.1"/>
	<circle id="XMLID_131_" class="st0" cx="237.3" cy="268.3" r="8.1"/>
	<circle id="XMLID_132_" class="st0" cx="162.5" cy="132.6" r="8.1"/>
	<circle id="XMLID_133_" class="st0" cx="162.5" cy="268.3" r="8.1"/>
	<circle id="XMLID_142_" class="st0" cx="237.3" cy="132.6" r="8.1"/>
</g>
</svg>
