<?xml version="1.0" encoding="utf-8"?>
<!-- Generator: Adobe Illustrator 19.0.0, SVG Export Plug-In . SVG Version: 6.00 Build 0)  -->
<svg version="1.1" id="Layer_1" xmlns="http://www.w3.org/2000/svg" xmlns:xlink="http://www.w3.org/1999/xlink" x="0px" y="0px"
	 viewBox="0 0 400 400" style="enable-background:new 0 0 400 400;" xml:space="preserve">
<style type="text/css">
	.st0{fill:#D1D3D4;}
</style>
<path id="XMLID_106_" class="st0" d="M296,196.7h-14.5l7-8c1.5-1.7,1.3-4.2-0.4-5.7c-1.7-1.5-4.2-1.3-5.7,0.4l-11.6,13.3H253
	l12.3-14.1c1.5-1.7,1.3-4.2-0.4-5.7c-1.7-1.5-4.2-1.3-5.7,0.4l-16.8,19.4h-17.4c-0.4-2.6-1.2-5-2.4-7.2l26.8-7.9
	c2.1-0.6,3.3-2.9,2.7-5c-0.6-2.1-2.8-3.3-5-2.7l-20.6,6.1l20.2-20.2l15.2,1.1c0.1,0,0.2,0,0.3,0c2.1,0,3.9-1.6,4-3.7
	c0.2-2.2-1.5-4.1-3.7-4.3l-8.3-0.6l8.2-8.2c1.6-1.6,1.6-4.1,0-5.7c-1.6-1.6-4.1-1.6-5.7,0l-8.2,8.2l-0.6-8.3
	c-0.2-2.2-2.1-3.9-4.3-3.7c-2.2,0.2-3.9,2.1-3.7,4.3L241,154l-19.9,19.9l5.9-20c0.6-2.1-0.6-4.4-2.7-5c-2.1-0.6-4.4,0.6-5,2.7
	l-7.9,26.8c-2.3-1.2-4.8-2-7.4-2.4v-17.6l19.4-16.8c1.7-1.5,1.9-4,0.4-5.7c-1.5-1.7-4-1.9-5.7-0.4L204,147.7v-17.9l13.3-11.6
	c1.7-1.5,1.9-4,0.4-5.7c-1.5-1.7-4-1.9-5.7-0.4l-8,7v-14.4c0-2.2-1.8-4-4-4c-2.2,0-4,1.8-4,4v14.4l-8-7c-1.7-1.5-4.2-1.3-5.7,0.4
	c-1.5,1.7-1.3,4.2,0.4,5.7l13.3,11.6v17.9l-14.1-12.2c-1.7-1.5-4.2-1.3-5.7,0.4c-1.5,1.7-1.3,4.2,0.4,5.7l19.3,16.8V176
	c-2.6,0.4-5,1.2-7.2,2.4l-7.9-26.8c-0.6-2.1-2.9-3.3-5-2.7c-2.1,0.6-3.3,2.9-2.7,5l6,20.3L159,154l1.1-15.3c0.2-2.2-1.5-4.1-3.7-4.3
	c-2.2-0.1-4.1,1.5-4.3,3.7l-0.6,8.2l-8.2-8.2c-1.6-1.6-4.1-1.6-5.7,0c-1.6,1.6-1.6,4.1,0,5.7l8.2,8.2l-8.3,0.6
	c-2.2,0.2-3.9,2.1-3.7,4.3c0.1,2.1,1.9,3.7,4,3.7c0.1,0,0.2,0,0.3,0l15.2-1.1l20.1,20.1l-20.3-6c-2.1-0.6-4.4,0.6-5,2.7
	c-0.6,2.1,0.6,4.4,2.7,5l26.8,7.9c-1.1,2.2-1.9,4.7-2.4,7.2h-17.6l-16.8-19.4c-1.5-1.7-4-1.9-5.7-0.4c-1.7,1.5-1.9,4-0.4,5.7
	l12.2,14.1h-17.9l-11.6-13.3c-1.5-1.7-4-1.9-5.7-0.4c-1.7,1.5-1.9,4-0.4,5.7l7,8H104c-2.2,0-4,1.8-4,4s1.8,4,4,4h14.4l-7,8
	c-1.5,1.7-1.3,4.2,0.4,5.7c0.8,0.7,1.7,1,2.6,1c1.1,0,2.2-0.5,3-1.4l11.6-13.3H147l-12.2,14.1c-1.5,1.7-1.3,4.2,0.4,5.7
	c0.8,0.7,1.7,1,2.6,1c1.1,0,2.2-0.5,3-1.4l16.8-19.3h17.6c0.4,2.6,1.2,5.1,2.4,7.4l-26.8,7.9c-2.1,0.6-3.3,2.9-2.7,5
	c0.5,1.7,2.1,2.9,3.9,2.9c0.4,0,0.8-0.1,1.1-0.2l20-5.9l-19.8,19.8l-15.2-1.1c-2.2-0.1-4.1,1.5-4.3,3.7c-0.2,2.2,1.5,4.1,3.7,4.3
	l8.3,0.6l-8.2,8.2c-1.6,1.6-1.6,4.1,0,5.7c0.8,0.8,1.8,1.2,2.8,1.2s2.1-0.4,2.8-1.2l8.2-8.2l0.6,8.2c0.1,2.1,1.9,3.7,4,3.7
	c0.1,0,0.2,0,0.3,0c2.2-0.2,3.9-2.1,3.7-4.3l-1.1-15.2l20.2-20.2l-6.1,20.5c-0.6,2.1,0.6,4.4,2.7,5c0.4,0.1,0.8,0.2,1.1,0.2
	c1.7,0,3.3-1.1,3.9-2.9l7.9-26.8c2.2,1.1,4.7,1.9,7.2,2.4v17.4l-19.3,16.8c-1.7,1.5-1.9,4-0.4,5.7c0.8,0.9,1.9,1.4,3,1.4
	c0.9,0,1.9-0.3,2.6-1l14.1-12.2v17.9l-13.3,11.6c-1.7,1.5-1.9,4-0.4,5.7c0.8,0.9,1.9,1.4,3,1.4c0.9,0,1.9-0.3,2.6-1l8-7v14.5
	c0,2.2,1.8,4,4,4c2.2,0,4-1.8,4-4v-14.5l8,7c0.8,0.7,1.7,1,2.6,1c1.1,0,2.2-0.5,3-1.4c1.5-1.7,1.3-4.2-0.4-5.7L204,271.6v-17.9
	l14.1,12.2c0.8,0.7,1.7,1,2.6,1c1.1,0,2.2-0.5,3-1.4c1.5-1.7,1.3-4.2-0.4-5.7L204,243.1v-17.4c2.6-0.4,5.1-1.2,7.4-2.4l7.9,26.8
	c0.5,1.7,2.1,2.9,3.9,2.9c0.4,0,0.8-0.1,1.1-0.2c2.1-0.6,3.3-2.9,2.7-5l-6-20.3l19.9,19.9l-1.1,15.3c-0.2,2.2,1.5,4.1,3.7,4.3
	c0.1,0,0.2,0,0.3,0c2.1,0,3.9-1.6,4-3.7l0.6-8.3l8.2,8.2c0.8,0.8,1.8,1.2,2.8,1.2s2.1-0.4,2.8-1.2c1.6-1.6,1.6-4.1,0-5.7l-8.2-8.2
	l8.2-0.6c2.2-0.2,3.9-2.1,3.7-4.3c-0.2-2.2-2.2-3.9-4.3-3.7l-15.2,1.1l-19.9-19.9l20.2,6c0.4,0.1,0.8,0.2,1.1,0.2
	c1.7,0,3.3-1.1,3.9-2.9c0.6-2.1-0.6-4.4-2.7-5l-26.8-7.9c1.2-2.3,2-4.8,2.4-7.4h17.4l16.8,19.3c0.8,0.9,1.9,1.4,3,1.4
	c0.9,0,1.9-0.3,2.6-1c1.7-1.5,1.9-4,0.4-5.7L253,204.7h17.9l11.6,13.3c0.8,0.9,1.9,1.4,3,1.4c0.9,0,1.9-0.3,2.6-1
	c1.7-1.5,1.9-4,0.4-5.7l-7-8H296c2.2,0,4-1.8,4-4S298.2,196.7,296,196.7z M200.1,217.9C200.1,217.9,200.1,217.9,200.1,217.9
	C200,217.9,200,217.9,200.1,217.9c-0.1,0-0.1,0-0.1,0c-9.4-0.1-17-7.7-17-17.1c0-9.5,7.7-17.1,17.1-17.1c9.4,0,17.1,7.7,17.1,17.1
	C217.2,210.3,209.5,217.9,200.1,217.9z"/>
</svg>
