<?xml version="1.0" encoding="utf-8"?>
<!-- Generator: Adobe Illustrator 19.0.0, SVG Export Plug-In . SVG Version: 6.00 Build 0)  -->
<svg version="1.1" id="Layer_1" xmlns="http://www.w3.org/2000/svg" xmlns:xlink="http://www.w3.org/1999/xlink" x="0px" y="0px"
	 viewBox="0 0 400 400" style="enable-background:new 0 0 400 400;" xml:space="preserve">
<style type="text/css">
	.st0{fill:#D1D3D4;}
</style>
<path id="XMLID_1181_" class="st0" d="M293.7,192.2c-0.7-0.8-1.9-1-2.8-0.6l-14.4,6.6h-5.7l6.9-3.2c0.8-0.4,1.2-1.2,1.1-2l-0.9-7.4
	c-0.1-1-1-1.8-2-1.7l-7.5,0.3c-0.9,0-1.6,0.6-1.8,1.4l-3.7,12.7h-10.2l6.9-3.2c0.8-0.4,1.2-1.2,1.1-2l-0.9-7.4c-0.1-1-1-1.8-2-1.7
	l0,0c0,0,0,0,0,0l-7.5,0.3c-0.9,0-1.6,0.6-1.8,1.4l-3.7,12.7h-9.5l8.9-13.2c0.5-0.7,0.6-1.6,0.2-2.4c-0.3-0.8-1-1.4-1.9-1.5
	l-15.7-3.1l6.8-6.8l11.6,6.4c0.7,0.4,1.7,0.3,2.3-0.3l5.5-5.1c0,0,0,0,0,0l0,0c0.7-0.7,0.8-1.9,0.2-2.7l-4.6-5.9
	c-0.5-0.7-1.4-0.9-2.2-0.6l-7.2,2.6l7.2-7.2l11.6,6.4c0.7,0.4,1.7,0.3,2.3-0.3l5.5-5.1c0.7-0.7,0.8-1.9,0.2-2.7l-4.6-5.9
	c-0.5-0.7-1.4-0.9-2.2-0.6l-7.2,2.6l4-4l14.8-5.5c1-0.4,1.6-1.3,1.6-2.4l-0.4-9.3c-0.1-1.3-1.1-2.3-2.4-2.4l-9.3-0.4
	c-1.1,0-2,0.6-2.4,1.6l-5.5,14.8l-4,4l2.6-7.2c0.3-0.8,0-1.7-0.6-2.2l-5.9-4.6c-0.8-0.6-2-0.5-2.7,0.2l-5.1,5.5
	c-0.6,0.6-0.7,1.6-0.3,2.3l6.4,11.6l-7.2,7.2l2.6-7.2c0.3-0.8,0-1.7-0.6-2.2l-5.9-4.6c-0.8-0.6-2-0.5-2.7,0.2l0,0c0,0,0,0,0,0
	l-5.1,5.5c-0.6,0.6-0.7,1.6-0.3,2.3l6.4,11.6l-6.8,6.8l-3.1-15.7c-0.2-0.8-0.7-1.5-1.5-1.9c-0.8-0.3-1.7-0.2-2.4,0.2l-13.2,8.9v-9.5
	l12.7-3.7c0.8-0.2,1.4-1,1.4-1.8l0.3-7.5c0,0,0,0,0,0l0,0c0-1-0.7-1.9-1.7-2l-7.4-0.9c-0.8-0.1-1.7,0.4-2,1.1l-3.2,6.9v-10.2
	l12.7-3.7c0.8-0.2,1.4-1,1.4-1.8l0.3-7.5c0-1-0.7-1.9-1.7-2l-7.4-0.9c-0.8-0.1-1.7,0.4-2,1.1l-3.2,6.9v-5.7l6.6-14.4
	c0.4-1,0.2-2.1-0.6-2.8l-6.9-6.3c-0.9-0.9-2.4-0.9-3.3,0l-6.9,6.3c-0.8,0.7-1,1.9-0.6,2.8l6.6,14.4v5.7l-3.2-6.9
	c-0.4-0.8-1.2-1.2-2-1.1l-7.4,0.9c-1,0.1-1.8,1-1.7,2l0.3,7.5c0,0.9,0.6,1.6,1.4,1.8l12.7,3.7v10.2l-3.2-6.9c-0.4-0.8-1.2-1.2-2-1.1
	l-7.4,0.9c-1,0.1-1.8,1-1.7,2l0,0c0,0,0,0,0,0l0.3,7.5c0,0.9,0.6,1.6,1.4,1.8l12.7,3.7v9.5l-13.2-8.9c-0.7-0.5-1.6-0.6-2.4-0.2
	c-0.8,0.3-1.4,1-1.5,1.9l-3.1,15.7l-6.8-6.8l6.4-11.6c0.4-0.7,0.3-1.7-0.3-2.3l-5.1-5.5c0,0,0,0,0,0l0,0c-0.7-0.7-1.9-0.8-2.7-0.2
	l-5.9,4.6c-0.7,0.5-0.9,1.4-0.6,2.2l2.6,7.2l-7.2-7.2l6.4-11.6c0.4-0.7,0.3-1.7-0.3-2.3l-5.1-5.5c-0.7-0.7-1.9-0.8-2.7-0.2l-5.9,4.6
	c-0.7,0.5-0.9,1.4-0.6,2.2l2.6,7.2l-4-4l-5.5-14.8c-0.4-1-1.3-1.6-2.4-1.6l-9.3,0.4c-1.3,0.1-2.3,1.1-2.4,2.4l-0.4,9.3
	c0,1.1,0.6,2,1.6,2.4l14.8,5.5l4,4l-7.2-2.6c-0.8-0.3-1.7,0-2.2,0.6l-4.6,5.9c-0.6,0.8-0.5,2,0.2,2.7l5.5,5.1
	c0.6,0.6,1.6,0.7,2.3,0.3l11.6-6.4l7.2,7.2l-7.2-2.6c-0.8-0.3-1.7,0-2.2,0.6l-4.6,5.9c-0.6,0.8-0.5,2,0.2,2.7l0,0c0,0,0,0,0,0
	l5.5,5.1c0.6,0.6,1.6,0.7,2.3,0.3l11.6-6.4l6.8,6.8l-15.7,3.1c-0.8,0.2-1.5,0.7-1.9,1.5c-0.3,0.8-0.2,1.7,0.2,2.4l8.9,13.2h-9.5
	l-3.7-12.7c-0.2-0.8-1-1.4-1.8-1.4l-7.5-0.3c0,0,0,0,0,0l0,0c-1,0-1.9,0.7-2,1.7l-0.9,7.4c-0.1,0.8,0.4,1.7,1.1,2l6.9,3.2h-10.2
	l-3.7-12.7c-0.2-0.8-1-1.4-1.8-1.4l-7.5-0.3c-1,0-1.9,0.7-2,1.7l-0.9,7.4c-0.1,0.8,0.4,1.7,1.1,2l6.9,3.2h-5.7l-14.4-6.6
	c-1-0.4-2.1-0.2-2.8,0.6l-6.3,6.9c-0.9,0.9-0.9,2.4,0,3.3l6.3,6.9c0.7,0.8,1.9,1,2.8,0.6l14.4-6.6h5.7l-6.9,3.2
	c-0.8,0.4-1.2,1.2-1.1,2l0.9,7.4c0.1,1,1,1.8,2,1.7l7.5-0.3c0.9,0,1.6-0.6,1.8-1.4l3.7-12.7h10.2l-6.9,3.2c-0.8,0.4-1.2,1.2-1.1,2
	l0.9,7.4c0.1,1,1,1.8,2,1.7l0,0c0,0,0,0,0,0l7.5-0.3c0.9,0,1.6-0.6,1.8-1.4l3.7-12.7h9.5l-8.9,13.2c-0.5,0.7-0.6,1.6-0.2,2.4
	c0.3,0.8,1,1.4,1.9,1.5l15.7,3.1l-6.8,6.8l-11.6-6.4c-0.7-0.4-1.7-0.3-2.3,0.3l-5.5,5.1c0,0,0,0,0,0l0,0c-0.7,0.7-0.8,1.9-0.2,2.7
	l4.6,5.9c0.5,0.7,1.4,0.9,2.2,0.6l7.2-2.6l-7.2,7.2l-11.6-6.4c-0.7-0.4-1.7-0.3-2.3,0.3l-5.5,5.1c-0.7,0.7-0.8,1.9-0.2,2.7l4.6,5.9
	c0.5,0.7,1.4,0.9,2.2,0.6l7.2-2.6l-4,4l-14.8,5.5c-1,0.4-1.6,1.3-1.6,2.4l0.4,9.3c0.1,1.3,1.1,2.3,2.4,2.4l9.3,0.4
	c1.1,0,2-0.6,2.4-1.6l5.5-14.8l4-4l-2.6,7.2c-0.3,0.8,0,1.7,0.6,2.2l5.9,4.6c0.8,0.6,2,0.5,2.7-0.2l5.1-5.5c0.6-0.6,0.7-1.6,0.3-2.3
	l-6.4-11.6l7.2-7.2l-2.6,7.2c-0.3,0.8,0,1.7,0.6,2.2l5.9,4.6c0.8,0.6,2,0.5,2.7-0.2l0,0c0,0,0,0,0,0l5.1-5.5
	c0.6-0.6,0.7-1.6,0.3-2.3l-6.4-11.6l6.8-6.8l3.1,15.7c0.2,0.8,0.7,1.5,1.5,1.9c0.8,0.3,1.7,0.2,2.4-0.2l13.2-8.9v9.5l-12.7,3.7
	c-0.8,0.2-1.4,1-1.4,1.8l-0.3,7.5c0,0,0,0,0,0l0,0c0,1,0.7,1.9,1.7,2l7.4,0.9c0.8,0.1,1.7-0.4,2-1.1l3.2-6.9v10.2l-12.7,3.7
	c-0.8,0.2-1.4,1-1.4,1.8l-0.3,7.5c0,1,0.7,1.9,1.7,2l7.4,0.9c0.8,0.1,1.7-0.4,2-1.1l3.2-6.9v5.7l-6.6,14.4c-0.4,1-0.2,2.1,0.6,2.8
	l6.9,6.3c0.9,0.9,2.4,0.9,3.3,0l6.9-6.3c0.8-0.7,1-1.9,0.6-2.8l-6.6-14.4v-5.7l3.2,6.9c0.4,0.8,1.2,1.2,2,1.1l7.4-0.9
	c1-0.1,1.8-1,1.7-2l-0.3-7.5c0-0.9-0.6-1.6-1.4-1.8l-12.7-3.7v-10.2l3.2,6.9c0.4,0.8,1.2,1.2,2,1.1l7.4-0.9c1-0.1,1.8-1,1.7-2l0,0
	c0,0,0,0,0,0l-0.3-7.5c0-0.9-0.6-1.6-1.4-1.8l-12.7-3.7v-9.5l13.2,8.9c0.4,0.3,0.9,0.4,1.4,0.4c0.3,0,0.7-0.1,1-0.2
	c0.8-0.3,1.4-1,1.5-1.9l3.1-15.7l6.8,6.8l-6.4,11.6c-0.4,0.7-0.3,1.7,0.3,2.3l5.1,5.5c0,0,0,0,0,0l0,0c0.7,0.7,1.9,0.8,2.7,0.2
	l5.9-4.6c0.7-0.5,0.9-1.4,0.6-2.2l-2.6-7.2l7.2,7.2l-6.4,11.6c-0.4,0.7-0.3,1.7,0.3,2.3l5.1,5.5c0.7,0.7,1.9,0.8,2.7,0.2l5.9-4.6
	c0.7-0.5,0.9-1.4,0.6-2.2l-2.6-7.2l4,4L258,271c0.4,1,1.3,1.6,2.4,1.6l9.3-0.4c1.3-0.1,2.3-1.1,2.4-2.4l0.4-9.3c0-1.1-0.6-2-1.6-2.4
	l-14.8-5.5l-4-4l7.2,2.6c0.8,0.3,1.7,0,2.2-0.6l4.6-5.9c0.6-0.8,0.5-2-0.2-2.7l-5.5-5.1c-0.6-0.6-1.6-0.7-2.3-0.3l-11.6,6.4
	l-7.2-7.2l7.2,2.6c0.8,0.3,1.7,0,2.2-0.6l4.6-5.9c0.6-0.8,0.5-2-0.2-2.7l0,0c0,0,0,0,0,0l-5.5-5.1c-0.6-0.6-1.6-0.7-2.3-0.3
	l-11.6,6.4l-6.8-6.8l15.7-3.1c0.8-0.2,1.5-0.7,1.9-1.5c0.3-0.8,0.2-1.7-0.2-2.4l-8.9-13.2h9.5l3.7,12.7c0.2,0.8,1,1.4,1.8,1.4
	l7.5,0.3c0,0,0,0,0,0l0,0c1,0,1.9-0.7,2-1.7l0.9-7.4c0.1-0.8-0.4-1.7-1.1-2l-6.9-3.2H263l3.7,12.7c0.2,0.8,1,1.4,1.8,1.4l7.5,0.3
	c1,0,1.9-0.7,2-1.7l0.9-7.4c0.1-0.8-0.4-1.7-1.1-2l-6.9-3.2h5.7l14.4,6.6c1,0.4,2.1,0.2,2.8-0.6l6.3-6.9c0.9-0.9,0.9-2.4,0-3.3
	L293.7,192.2z M203.2,172.1l12.9-8.7l3,15.3l-10.5,10.5l-5.4-2.1V172.1z M185.2,163.4l12.9,8.7V187l-5.3,2.3l-10.6-10.6L185.2,163.4
	z M163.4,185.3l15.3-3l10.5,10.5l-2.1,5.4h-15L163.4,185.3z M178.6,219.2l-15.3-3l8.7-12.9h14.9l2.3,5.3L178.6,219.2z M198.1,229.4
	l-12.9,8.7l-3-15.3l10.5-10.5l5.4,2.1V229.4z M200.9,209.9l-6.6-2.6l-2.8-6.5l2.6-6.6l6.5-2.8l6.6,2.6l2.8,6.5l-2.6,6.6L200.9,209.9
	z M216.1,238l-12.9-8.7v-14.9l5.3-2.3l10.6,10.6L216.1,238z M238,216.2l-15.3,3l-10.5-10.5l2.1-5.4h15L238,216.2z M229.3,198.2
	h-14.9l-2.3-5.3l10.6-10.6l15.3,3L229.3,198.2z"/>
</svg>
