<?xml version="1.0" encoding="utf-8"?>
<!-- Generator: Adobe Illustrator 19.0.0, SVG Export Plug-In . SVG Version: 6.00 Build 0)  -->
<svg version="1.1" id="Layer_1" xmlns="http://www.w3.org/2000/svg" xmlns:xlink="http://www.w3.org/1999/xlink" x="0px" y="0px"
	 viewBox="0 0 400 400" style="enable-background:new 0 0 400 400;" xml:space="preserve">
<style type="text/css">
	.st0{fill:#D1D3D4;}
</style>
<path id="XMLID_5964_" class="st0" d="M284.3,246.5l-12.4-7.4l10.1-3.3c2.1-0.7,3.3-3,2.6-5.1c-0.7-2.1-3-3.3-5.1-2.6l-16.8,5.5
	l-7.6-4.6l17.7-5.8c2.1-0.7,3.3-3,2.6-5.1c-0.7-2.1-3-3.3-5.1-2.6l-24.4,7.9l-3.3-2l9.6-16.5c1.6-2.7,1.6-6.1,0-8.9l-9.6-16.5l3.3-2
	l24.4,7.9c0.4,0.1,0.8,0.2,1.2,0.2c1.7,0,3.3-1.1,3.8-2.8c0.7-2.1-0.5-4.4-2.6-5.1l-17.7-5.8l7.6-4.6l16.8,5.5
	c0.4,0.1,0.8,0.2,1.2,0.2c1.7,0,3.3-1.1,3.8-2.8c0.7-2.1-0.5-4.4-2.6-5.1l-10.1-3.3l12.4-7.4c1.9-1.1,2.5-3.6,1.4-5.5
	c-1.1-1.9-3.6-2.5-5.5-1.4l-12.4,7.4l1.9-10.5c0.4-2.2-1.1-4.3-3.3-4.7c-2.2-0.4-4.3,1.1-4.7,3.3l-3.1,17.4l-7.6,4.6l3.3-18.4
	c0.4-2.2-1.1-4.3-3.3-4.7c-2.2-0.4-4.3,1.1-4.7,3.3l-4.5,25.3l-3.2,1.9l-8.8-15.2c-1.6-2.7-4.5-4.4-7.7-4.4h-18.3v-3.8l19.4-16.8
	c1.7-1.5,1.9-4,0.4-5.7c-1.5-1.7-4-1.9-5.7-0.4l-14.1,12.2v-8.9l13.3-11.6c1.7-1.5,1.9-4,0.4-5.7c-1.5-1.7-4-1.9-5.7-0.4l-8,7v-14.4
	c0-2.2-1.8-4-4-4c-2.2,0-4,1.8-4,4v14.4l-8-7c-1.7-1.5-4.2-1.3-5.7,0.4c-1.5,1.7-1.3,4.2,0.4,5.7l13.3,11.6v8.9l-14.1-12.2
	c-1.7-1.5-4.2-1.3-5.7,0.4c-1.5,1.7-1.3,4.2,0.4,5.7l19.4,16.8v3.8h-18.3c-3.2,0-6.1,1.7-7.7,4.4l-8.8,15.2l-3.2-1.9l-4.5-25.3
	c-0.4-2.2-2.4-3.6-4.7-3.3c-2.2,0.4-3.6,2.5-3.3,4.7l3.3,18.4l-7.6-4.6l-3.1-17.4c-0.4-2.2-2.4-3.6-4.7-3.3
	c-2.2,0.4-3.6,2.5-3.3,4.7l1.9,10.5l-12.4-7.4c-1.9-1.1-4.4-0.5-5.5,1.4c-1.1,1.9-0.5,4.4,1.4,5.5l12.4,7.4l-10.1,3.3
	c-2.1,0.7-3.3,3-2.6,5.1c0.6,1.7,2.1,2.8,3.8,2.8c0.4,0,0.8-0.1,1.2-0.2l16.8-5.5l7.6,4.6l-17.7,5.8c-2.1,0.7-3.3,3-2.6,5.1
	c0.6,1.7,2.1,2.8,3.8,2.8c0.4,0,0.8-0.1,1.2-0.2l24.4-7.9l3.3,2l-9.6,16.5c-1.6,2.7-1.6,6.1,0,8.9l9.6,16.5l-3.3,2l-24.4-7.9
	c-2.1-0.7-4.4,0.5-5.1,2.6c-0.7,2.1,0.5,4.4,2.6,5.1l17.7,5.8l-7.6,4.6l-16.8-5.5c-2.1-0.7-4.4,0.5-5.1,2.6
	c-0.7,2.1,0.5,4.4,2.6,5.1l10.1,3.3l-12.4,7.4c-1.9,1.1-2.5,3.6-1.4,5.5c0.8,1.3,2.1,2,3.5,2c0.7,0,1.4-0.2,2.1-0.6L132,246
	l-1.9,10.5c-0.4,2.2,1.1,4.3,3.3,4.7c0.2,0,0.5,0.1,0.7,0.1c1.9,0,3.6-1.4,4-3.3l3.1-17.4l7.6-4.6l-3.3,18.4
	c-0.4,2.2,1.1,4.3,3.3,4.7c0.2,0,0.5,0.1,0.7,0.1c1.9,0,3.6-1.4,4-3.3l4.5-25.3l3.2-1.9l8.8,15.2c1.6,2.7,4.5,4.4,7.7,4.4h18.3v3.8
	l-19.4,16.8c-1.7,1.5-1.9,4-0.4,5.7c0.8,0.9,1.9,1.4,3,1.4c0.9,0,1.9-0.3,2.6-1l14.1-12.2v8.9l-13.3,11.6c-1.7,1.5-1.9,4-0.4,5.7
	c0.8,0.9,1.9,1.4,3,1.4c0.9,0,1.9-0.3,2.6-1l8-7v14.5c0,2.2,1.8,4,4,4c2.2,0,4-1.8,4-4v-14.5l8,7c0.8,0.7,1.7,1,2.6,1
	c1.1,0,2.2-0.5,3-1.4c1.5-1.7,1.3-4.2-0.4-5.7l-13.3-11.6v-8.9l14.1,12.2c0.8,0.7,1.7,1,2.6,1c1.1,0,2.2-0.5,3-1.4
	c1.5-1.7,1.3-4.2-0.4-5.7L203.9,252v-3.8h18.3c3.2,0,6.1-1.7,7.7-4.4l8.8-15.2l3.2,1.9l4.5,25.3c0.3,1.9,2,3.3,4,3.3
	c0.2,0,0.5,0,0.7-0.1c2.2-0.4,3.6-2.5,3.3-4.7L251,236l7.6,4.6l3.1,17.4c0.3,1.9,2,3.3,4,3.3c0.2,0,0.5,0,0.7-0.1
	c2.2-0.4,3.6-2.5,3.3-4.7l-1.9-10.5l12.4,7.4c0.6,0.4,1.4,0.6,2.1,0.6c1.4,0,2.7-0.7,3.5-2C286.8,250.2,286.2,247.7,284.3,246.5z
	 M245.3,200.2c0.1,0.3,0.1,0.6,0,0.8l-9.5,16.4l-28.1-16.8l28.1-16.8L245.3,200.2z M222.2,161.1c0.3,0,0.6,0.2,0.7,0.4l8.8,15.3
	l-27.8,16.7v-32.4H222.2z M176.9,161.5c0.1-0.3,0.4-0.4,0.7-0.4h18.3v32.4L168,176.8L176.9,161.5z M154.5,201
	c-0.1-0.3-0.1-0.6,0-0.8l9.5-16.4l28.1,16.8L164,217.5L154.5,201z M177.6,240.1c-0.3,0-0.6-0.2-0.7-0.4l-8.8-15.3l27.8-16.7v32.4
	H177.6z M222.9,239.7c-0.1,0.3-0.4,0.4-0.7,0.4h-18.3v-32.4l27.8,16.7L222.9,239.7z"/>
</svg>
