<?xml version="1.0" encoding="utf-8"?>
<!-- Generator: Adobe Illustrator 19.0.0, SVG Export Plug-In . SVG Version: 6.00 Build 0)  -->
<svg version="1.1" id="Layer_1" xmlns="http://www.w3.org/2000/svg" xmlns:xlink="http://www.w3.org/1999/xlink" x="0px" y="0px"
	 viewBox="0 0 400 400" style="enable-background:new 0 0 400 400;" xml:space="preserve">
<style type="text/css">
	.st0{fill:#D1D3D4;}
</style>
<path id="XMLID_756_" class="st0" d="M297.8,237.1l-12.6-5.2l12.6-5.6c1.8-0.8,2.6-2.9,1.8-4.7c-0.8-1.8-2.9-2.6-4.7-1.8l-18.5,8.2
	c-0.2,0-0.3,0.1-0.5,0.1l-10.7-4.4l20.2-8.8c1.8-0.8,2.6-2.9,1.8-4.7c-0.8-1.8-2.9-2.6-4.7-1.8L256,219.9l-13.3-5.5l29-10.4
	c1.4-0.5,2.4-1.9,2.4-3.4c0-1.5-1-2.8-2.4-3.3l-28.6-10.1l13-5.3l26.5,11.6c0.5,0.2,0.9,0.3,1.4,0.3c1.4,0,2.7-0.8,3.3-2.1
	c0.8-1.8,0-3.9-1.8-4.7l-20.2-8.8l10.7-4.4c0.1,0,0.3,0.1,0.4,0.1c0,0,0.1,0,0.1,0l18.6,8.2c0.5,0.2,1,0.3,1.4,0.3
	c1.4,0,2.7-0.8,3.3-2.1c0.8-1.8,0-3.9-1.8-4.7l-12.6-5.6l12.6-5.2c1.8-0.7,2.7-2.8,1.9-4.6c0-0.1-0.1-0.1-0.1-0.2c0-0.1,0-0.1,0-0.2
	c-0.7-1.8-2.8-2.7-4.6-1.9l-11.7,4.8l4.7-11.5c0.7-1.8-0.1-3.9-2-4.6c-1.8-0.7-3.9,0.1-4.6,2l-7.3,18l-11,4.5l7.9-19.4
	c0.7-1.8-0.1-3.9-1.9-4.6c-1.8-0.7-3.9,0.1-4.6,1.9l-10.6,25.9l-14.2,5.8l13.3-28.1c0.6-1.4,0.4-3-0.7-4c-1.1-1.1-2.7-1.3-4-0.7
	L220.5,161l5.7-13.8l25.9-10.6c1.8-0.7,2.7-2.8,1.9-4.6c-0.7-1.8-2.8-2.7-4.6-1.9l-19.4,7.9l4.5-11l18-7.3c1.8-0.7,2.7-2.8,2-4.6
	c-0.7-1.8-2.8-2.7-4.6-2l-11.5,4.7l4.8-11.7c0.7-1.8-0.1-3.9-1.9-4.6c-0.1,0-0.1,0-0.2,0c-0.1,0-0.1-0.1-0.2-0.1
	c-1.8-0.7-3.9,0.1-4.6,1.9l-5.2,12.6l-5.6-12.6c-0.8-1.8-2.9-2.6-4.7-1.8c-1.8,0.8-2.6,2.9-1.8,4.7l8.2,18.6c0,0.2,0.1,0.3,0.1,0.5
	l-4.4,10.7l-8.8-20.2c-0.8-1.8-2.9-2.6-4.7-1.8c-1.8,0.8-2.6,2.9-1.8,4.7l11.6,26.5l-5.5,13.3l-10.4-29c-0.5-1.4-1.8-2.4-3.3-2.4
	c0,0,0,0,0,0c-1.5,0-2.8,1-3.3,2.4l-10.1,28.6l-5.3-13l11.6-26.5c0.8-1.8,0-3.9-1.8-4.7c-1.8-0.8-3.9,0-4.7,1.8l-8.8,20.2l-4.4-10.7
	c0-0.2,0.1-0.3,0.1-0.5l8.2-18.5c0.8-1.8,0-3.9-1.8-4.7c-1.8-0.8-3.9,0-4.7,1.8l-5.6,12.6l-5.2-12.6c-0.7-1.8-2.8-2.7-4.6-1.9
	c-0.1,0-0.1,0.1-0.2,0.1c-0.1,0-0.1,0-0.2,0c-1.8,0.7-2.7,2.8-1.9,4.6l4.8,11.7l-11.5-4.7c-1.8-0.7-3.9,0.1-4.6,2
	c-0.7,1.8,0.1,3.9,2,4.6l18,7.3l4.5,11l-19.4-7.9c-1.8-0.7-3.9,0.1-4.6,1.9c-0.7,1.8,0.1,3.9,1.9,4.6l25.9,10.6l5.8,14.2L151.5,148
	c-1.4-0.6-3-0.4-4,0.7c-1.1,1.1-1.3,2.7-0.7,4l13.3,27.6l-13.8-5.7l-10.6-25.9c-0.7-1.8-2.8-2.7-4.6-1.9c-1.8,0.7-2.7,2.8-1.9,4.6
	l7.9,19.4l-11-4.5l-7.3-18c-0.7-1.8-2.8-2.7-4.6-2c-1.8,0.7-2.7,2.8-2,4.6l4.7,11.5l-11.7-4.8c-1.8-0.7-3.9,0.1-4.6,1.9
	c0,0.1,0,0.1,0,0.2c0,0.1-0.1,0.1-0.1,0.2c-0.7,1.8,0.1,3.9,1.9,4.6l12.6,5.2l-12.6,5.6c-1.8,0.8-2.6,2.9-1.8,4.7
	c0.6,1.3,1.9,2.1,3.3,2.1c0.5,0,1-0.1,1.4-0.3l18.6-8.2c0,0,0.1,0,0.1,0c0.1,0,0.3-0.1,0.4-0.1l10.7,4.4l-20.2,8.8
	c-1.8,0.8-2.6,2.9-1.8,4.7c0.6,1.3,1.9,2.1,3.3,2.1c0.5,0,1-0.1,1.4-0.3l26.5-11.6l13.3,5.5l-29,10.4c-1.4,0.5-2.4,1.9-2.4,3.4
	c0,1.5,1,2.8,2.4,3.3l28.6,10.1l-13,5.3l-26.5-11.6c-1.8-0.8-3.9,0-4.7,1.8c-0.8,1.8,0,3.9,1.8,4.7l20.2,8.8l-10.7,4.4
	c-0.2,0-0.3-0.1-0.5-0.1l-18.5-8.2c-1.8-0.8-3.9,0-4.7,1.8c-0.8,1.8,0,3.9,1.8,4.7l12.6,5.6l-12.6,5.2c-1.8,0.7-2.7,2.8-1.9,4.6
	c0,0.1,0.1,0.1,0.1,0.2c0,0.1,0,0.1,0,0.2c0.6,1.4,1.9,2.2,3.3,2.2c0.5,0,0.9-0.1,1.4-0.3l11.7-4.8l-4.7,11.5
	c-0.7,1.8,0.1,3.9,2,4.6c0.4,0.2,0.9,0.3,1.3,0.3c1.4,0,2.7-0.8,3.3-2.2l7.3-18l11-4.5l-7.9,19.4c-0.7,1.8,0.1,3.9,1.9,4.6
	c0.4,0.2,0.9,0.3,1.3,0.3c1.4,0,2.7-0.8,3.3-2.2l10.6-25.9l14.2-5.8l-13.3,28.1c-0.6,1.4-0.4,3,0.7,4c1.1,1.1,2.7,1.3,4,0.7
	l27.7-13.3l-5.7,13.8l-25.9,10.6c-1.8,0.7-2.7,2.8-1.9,4.6c0.6,1.4,1.9,2.2,3.3,2.2c0.4,0,0.9-0.1,1.3-0.3L170,264l-4.5,11l-18,7.3
	c-1.8,0.7-2.7,2.8-2,4.6c0.6,1.4,1.9,2.2,3.3,2.2c0.4,0,0.9-0.1,1.3-0.3l11.5-4.7l-4.8,11.7c-0.7,1.8,0.1,3.9,1.9,4.6
	c0.1,0,0.1,0,0.2,0c0.1,0,0.1,0.1,0.2,0.1c0.4,0.2,0.9,0.3,1.4,0.3c1.4,0,2.7-0.8,3.3-2.2l5.2-12.6l5.6,12.6
	c0.6,1.3,1.9,2.1,3.3,2.1c0.5,0,1-0.1,1.4-0.3c1.8-0.8,2.6-2.9,1.8-4.7l-8.2-18.5c0-0.2-0.1-0.3-0.1-0.5l4.4-10.7l8.8,20.2
	c0.6,1.3,1.9,2.1,3.3,2.1c0.5,0,1-0.1,1.4-0.3c1.8-0.8,2.6-2.9,1.8-4.7L181,257l5.5-13.3l10.4,29c0.5,1.4,1.8,2.4,3.3,2.4
	c0,0,0,0,0,0c1.5,0,2.8-1,3.3-2.4l10.1-28.6l5.3,13l-11.6,26.5c-0.8,1.8,0,3.9,1.8,4.7c0.5,0.2,0.9,0.3,1.4,0.3
	c1.4,0,2.7-0.8,3.3-2.1l8.8-20.2l4.4,10.7c0,0.2-0.1,0.3-0.1,0.5l-8.2,18.6c-0.8,1.8,0,3.9,1.8,4.7c0.5,0.2,1,0.3,1.4,0.3
	c1.4,0,2.7-0.8,3.3-2.1l5.6-12.6l5.2,12.6c0.6,1.4,1.9,2.2,3.3,2.2c0.5,0,0.9-0.1,1.4-0.3c0.1,0,0.1-0.1,0.2-0.1c0.1,0,0.1,0,0.2,0
	c1.8-0.7,2.7-2.8,1.9-4.6l-4.8-11.7l11.5,4.7c0.4,0.2,0.9,0.3,1.3,0.3c1.4,0,2.7-0.8,3.3-2.2c0.7-1.8-0.1-3.9-2-4.6l-18-7.3l-4.5-11
	l19.4,7.9c0.4,0.2,0.9,0.3,1.3,0.3c1.4,0,2.7-0.8,3.3-2.2c0.7-1.8-0.1-3.9-1.9-4.6l-25.9-10.6l-5.8-14.2l28.1,13.3
	c1.4,0.6,3,0.4,4-0.7c1.1-1.1,1.3-2.7,0.7-4L240,221.4l13.8,5.7l10.6,25.9c0.6,1.4,1.9,2.2,3.3,2.2c0.4,0,0.9-0.1,1.3-0.3
	c1.8-0.7,2.7-2.8,1.9-4.6l-7.9-19.4l11,4.5l7.3,18c0.6,1.4,1.9,2.2,3.3,2.2c0.4,0,0.9-0.1,1.3-0.3c1.8-0.7,2.7-2.8,2-4.6l-4.7-11.5
	l11.7,4.8c0.4,0.2,0.9,0.3,1.4,0.3c1.4,0,2.7-0.8,3.3-2.2c0-0.1,0-0.1,0-0.2c0-0.1,0.1-0.1,0.1-0.2
	C300.5,239.9,299.6,237.8,297.8,237.1z M259.9,200.7l-27,9.7l-23.1-9.5l23.3-9.6L259.9,200.7z M242.2,158.4l-12.3,26.1l-23,9.5
	l9.6-23.3L242.2,158.4z M199.8,141l9.7,27l-9.5,23.1l-9.6-23.3L199.8,141z M157.5,158.7l26.1,12.3l9.5,23l-23.3-9.6L157.5,158.7z
	 M140.1,201.1l27-9.7l23.1,9.5l-23.3,9.6L140.1,201.1z M157.8,243.4l12.3-26.1l23-9.5l-9.6,23.3L157.8,243.4z M200.2,260.8l-9.7-27
	l9.5-23.1l9.6,23.3L200.2,260.8z M242.5,243.1l-26.1-12.3l-9.5-23l23.3,9.6L242.5,243.1z"/>
</svg>
